PathFileType  4	(X/Y/Z) C:\Users\antoi\Documents\MyRepositories\mobilecap\ResultsAnalysis
DataRate	CameraRate	NumFrames	NumMarkers	Units	OrigDataRate	OrigDataStartFrame	OrigNumFrames
100.0	100.0	4	51	mm	100.0	34	271
Frame#	Time	r_knee			r_shank_antsup			r_ankle			r_calc			r_5meta			r_toe			L_knee			L_shank_antsup			L_ankle			L_calc			L_5meta			L_toe			r_sh2			r_sh3			r_sh4			L_sh2			L_sh3			r_thigh1			r_thigh2			r_thigh3			r_thigh4			r_thigh5			L_thigh1			L_thigh2			L_thigh3			L_thigh4			r.ASIS			r.PSIS			L.ASIS			L.PSIS			C7			R_Shoulder			L_Shoulder			R_Sternum			L_Sternum			R_humerus			R_elbow_med			R_elbow_lat			R_forearm			R_wrist_radius			R_wrist_ulna			L_humerus			L_elbow_med			L_elbow_lat			L_forearm			L_wrist_radius			L_wrist_ulna			R_HJC			L_HJC			R_HJC_reg			L_HJC_reg			
		X1	Y1	Z1	X2	Y2	Z2	X3	Y3	Z3	X4	Y4	Z4	X5	Y5	Z5	X6	Y6	Z6	X7	Y7	Z7	X8	Y8	Z8	X9	Y9	Z9	X10	Y10	Z10	X11	Y11	Z11	X12	Y12	Z12	X13	Y13	Z13	X14	Y14	Z14	X15	Y15	Z15	X16	Y16	Z16	X17	Y17	Z17	X18	Y18	Z18	X19	Y19	Z19	X20	Y20	Z20	X21	Y21	Z21	X22	Y22	Z22	X23	Y23	Z23	X24	Y24	Z24	X25	Y25	Z25	X26	Y26	Z26	X27	Y27	Z27	X28	Y28	Z28	X29	Y29	Z29	X30	Y30	Z30	X31	Y31	Z31	X32	Y32	Z32	X33	Y33	Z33	X34	Y34	Z34	X35	Y35	Z35	X36	Y36	Z36	X37	Y37	Z37	X38	Y38	Z38	X39	Y39	Z39	X40	Y40	Z40	X41	Y41	Z41	X42	Y42	Z42	X43	Y43	Z43	X44	Y44	Z44	X45	Y45	Z45	X46	Y46	Z46	X47	Y47	Z47	X48	Y48	Z48	X49	Y49	Z49	X50	Y50	Z50	X51	Y51	Z51	

34	0.33000000	-1147.63826	826.26431	-458.64599	-1135.92525	740.20017	-441.31226	-1287.62184	409.79728	-471.85161	-1344.84124	357.92280	-525.67779	-1152.32630	354.96916	-423.75264	-1113.75506	379.94779	-479.59568	-1136.02612	822.22670	-741.28667	-1130.57695	701.08102	-754.19169	-1274.67262	407.47203	-743.48618	-1345.96623	358.83988	-705.21936	-1102.36998	374.09968	-714.45186	-1126.59723	347.72933	-778.35180	-1171.70146	633.91378	-440.43386	-1206.04613	763.34257	-428.66227	-1250.85538	655.55175	-430.59429	-1211.17406	736.22716	-774.71724	-1246.08623	617.93803	-772.26483	-1163.91983	1146.36232	-419.61800	-1124.42435	1044.61053	-434.63292	-1165.35284	998.16782	-410.70271	-1268.35508	1100.79530	-420.79450	-1218.55726	994.93680	-423.42864	-1144.03916	1149.78075	-765.31038	-1099.46089	1019.61102	-755.25739	-1255.86294	1108.67448	-777.54149	-1201.43748	980.52296	-773.88241	-1176.04641	1312.98349	-461.00438	-1349.08651	1393.01379	-553.97210	-1158.72366	1308.17661	-719.00892	-1343.96329	1390.57168	-658.11378	-1145.60830	1878.76982	-611.50672	-1114.76836	1840.98930	-434.01382	-1079.76643	1825.80361	-765.18362	-1037.14104	1757.06839	-560.65574	-1031.51516	1750.35785	-618.56074	-1334.21771	1724.13152	-320.16977	-1433.94473	1683.68373	-388.56914	-1421.29106	1698.27770	-302.90847	-1484.36083	1554.10385	-259.95145	-1536.48892	1448.19384	-253.62220	-1561.79258	1479.69146	-233.67730	-1282.44399	1727.30057	-889.05101	-1393.72301	1725.51949	-843.76555	-1372.78527	1716.50369	-911.07633	-1464.87937	1569.69477	-953.85104	-1509.73041	1480.17457	-957.90986	-1537.73238	1504.49562	-973.97978	-1275.71222	1255.06785	-474.32722	-1257.06200	1249.88653	-703.88026	-1260.99696	1256.45969	-500.56151	-1252.60416	1252.46231	-671.00572	
35	0.34000000	-1144.25235	825.11889	-459.18054	-1133.07132	738.97925	-441.72185	-1287.96545	410.16198	-472.04025	-1345.21602	357.85515	-525.73116	-1152.43546	355.54637	-424.10660	-1114.11930	380.87869	-480.20491	-1133.41916	821.02111	-740.71307	-1128.24749	700.28256	-754.31590	-1274.57298	407.49433	-743.38505	-1346.12383	358.90176	-705.13606	-1102.34941	374.00036	-714.51871	-1126.62105	347.64884	-778.40237	-1170.12851	633.20751	-440.85889	-1203.10715	762.71787	-429.16628	-1248.79479	655.50339	-430.95051	-1208.75915	735.87060	-774.47359	-1244.57589	617.70492	-771.78492	-1164.32517	1144.30324	-419.39823	-1123.69669	1043.10750	-434.29431	-1164.09030	996.32472	-410.51632	-1268.24346	1097.67910	-420.52191	-1217.29849	992.33790	-423.49669	-1145.42804	1148.25087	-765.17119	-1099.17950	1018.62078	-755.04181	-1256.74499	1105.76257	-776.99053	-1200.73148	978.31768	-773.35909	-1177.60147	1309.61446	-460.83785	-1350.42365	1391.40276	-551.90304	-1160.99086	1304.98830	-718.62446	-1345.31226	1388.49738	-657.30169	-1138.86879	1874.08052	-610.26502	-1107.04464	1835.71416	-432.93203	-1074.13740	1820.20549	-761.94328	-1032.13534	1750.76319	-559.72806	-1026.64632	1744.25874	-617.72201	-1331.26442	1729.10209	-320.40360	-1432.25632	1691.31497	-390.24188	-1419.68144	1706.72120	-303.84423	-1488.32491	1565.54031	-259.46581	-1543.98658	1461.40898	-252.61096	-1568.97847	1493.76976	-233.96448	-1279.81784	1731.36281	-887.19875	-1391.00228	1733.13261	-841.06060	-1370.90554	1724.18019	-908.60226	-1467.41434	1580.00236	-951.36071	-1514.15657	1491.70197	-955.37019	-1541.99021	1516.67588	-970.79818	-1277.61189	1252.50554	-473.51223	-1259.90741	1247.45995	-703.14400	-1263.38452	1254.55552	-500.13483	-1255.13083	1249.86342	-670.38889	
36	0.35000000	-1140.88135	823.66639	-459.91932	-1130.18149	737.75653	-442.09009	-1288.19626	410.42948	-472.30857	-1345.59577	357.73698	-525.83438	-1152.65565	355.99720	-424.49171	-1114.39812	381.69587	-480.76228	-1130.74969	819.65196	-740.23480	-1125.84978	699.39401	-754.77606	-1274.42035	407.62945	-743.60101	-1346.06873	359.01030	-705.17293	-1102.28810	373.91821	-714.64773	-1126.66140	347.53277	-778.47043	-1168.42648	632.44837	-441.42776	-1200.09111	761.90704	-429.84996	-1246.88426	655.44164	-431.25940	-1206.23578	735.38309	-774.16239	-1242.90397	617.44223	-771.75061	-1164.73730	1142.00310	-419.36177	-1122.80984	1041.30330	-434.03204	-1162.95033	994.33022	-410.15491	-1268.15913	1094.41391	-420.11478	-1216.08352	989.44183	-423.73301	-1147.01435	1146.54348	-765.25741	-1098.94264	1017.50774	-755.00583	-1257.73319	1102.70443	-776.82774	-1200.10428	975.96191	-773.01391	-1179.27285	1305.95054	-460.66423	-1351.66952	1389.34590	-550.37540	-1163.32544	1301.43838	-718.33679	-1346.75639	1386.12508	-656.21070	-1132.15268	1868.97483	-608.78691	-1098.95300	1829.89605	-431.79284	-1068.56809	1814.01330	-757.65367	-1027.15266	1743.99027	-558.78675	-1021.79428	1737.55263	-616.64414	-1327.37113	1733.02687	-320.85127	-1429.25512	1697.94767	-391.71383	-1416.93308	1714.11585	-304.99297	-1490.65981	1575.98827	-259.34703	-1549.53627	1473.84890	-251.62545	-1574.30122	1506.98420	-234.24307	-1276.40587	1734.20881	-884.64172	-1387.20346	1739.35668	-837.68239	-1367.38461	1730.69187	-907.11470	-1468.26463	1588.81902	-948.42203	-1516.77291	1501.65382	-952.24726	-1544.34061	1527.16048	-967.31853	-1279.58046	1249.60923	-472.77644	-1262.77551	1244.68071	-702.47777	-1265.70294	1252.13015	-499.66097	-1257.80633	1246.94943	-669.81423	
37	0.36000000	-1137.66848	822.16165	-460.56265	-1127.38671	736.50677	-442.53180	-1288.11625	410.51429	-472.50833	-1345.82206	357.62525	-525.96854	-1152.75097	356.35402	-424.96797	-1114.48006	382.10131	-481.34393	-1127.94347	818.34813	-740.24258	-1123.55204	698.30586	-754.95333	-1274.32853	407.68560	-743.64630	-1345.80852	359.12368	-705.28230	-1102.25879	373.87549	-714.83069	-1126.71603	347.42199	-778.54132	-1166.53169	631.58367	-442.04487	-1197.22794	761.27018	-430.27215	-1244.97702	655.15803	-431.41450	-1203.68000	734.94876	-774.02373	-1241.19132	617.32118	-772.04783	-1165.44115	1139.74083	-418.91153	-1122.01081	1039.32251	-433.91524	-1161.93056	992.12849	-409.86800	-1268.24578	1091.02650	-419.60595	-1214.88754	986.30187	-424.10253	-1148.70103	1144.64535	-765.23417	-1098.74684	1016.26272	-754.95588	-1258.85583	1099.46765	-776.48912	-1199.49491	973.30525	-772.49868	-1181.01597	1301.90407	-460.40559	-1352.92706	1387.07984	-548.64299	-1165.73102	1297.48258	-718.09362	-1348.27188	1383.51615	-654.97367	-1125.47411	1863.41069	-607.25555	-1090.73166	1823.53659	-430.67049	-1062.38007	1807.64152	-754.55081	-1022.07585	1736.69246	-557.78940	-1016.86496	1730.28991	-615.44151	-1322.81826	1735.71400	-321.37873	-1424.96886	1703.25397	-392.83638	-1413.25168	1720.19858	-306.31995	-1491.49106	1585.21029	-259.36036	-1553.32292	1485.09543	-250.68772	-1577.59062	1519.13865	-234.20278	-1272.35600	1735.67520	-881.80624	-1382.46032	1743.74831	-833.95218	-1362.60326	1735.67054	-906.21185	-1467.65428	1595.90668	-945.16138	-1517.84345	1509.79633	-949.04431	-1545.14710	1535.72854	-963.59206	-1281.63451	1246.41177	-471.94258	-1265.83029	1241.61751	-701.71735	-1268.11664	1249.39604	-499.07379	-1260.66670	1243.69446	-669.21350	
